<svg xmlns="http://www.w3.org/2000/svg" width="678.47" height="547.95" font-family="DejaVu Sans, Verdana, Liberation Sans, Arial, sans-serif" fill="black"><rect width="100%" height="100%" fill="white" /><defs><clipPath id="kuva-clip-2"><rect x="61.300000000000004" y="46.95" width="600" height="450"/></clipPath></defs><line x1="180.24" y1="46.95" x2="180.24" y2="496.95" stroke="#cccccc" stroke-width="1" /><line x1="299.18" y1="46.95" x2="299.18" y2="496.95" stroke="#cccccc" stroke-width="1" /><line x1="418.12" y1="46.95" x2="418.12" y2="496.95" stroke="#cccccc" stroke-width="1" /><line x1="537.0600000000001" y1="46.95" x2="537.0600000000001" y2="496.95" stroke="#cccccc" stroke-width="1" /><line x1="656" y1="46.95" x2="656" y2="496.95" stroke="#cccccc" stroke-width="1" /><line x1="61.300000000000004" y1="389.81" x2="661.3000000000001" y2="389.81" stroke="#cccccc" stroke-width="1" /><line x1="61.300000000000004" y1="282.67" x2="661.3000000000001" y2="282.67" stroke="#cccccc" stroke-width="1" /><line x1="61.300000000000004" y1="175.52" x2="661.3000000000001" y2="175.52" stroke="#cccccc" stroke-width="1" /><line x1="61.300000000000004" y1="68.38" x2="661.3000000000001" y2="68.38" stroke="#cccccc" stroke-width="1" /><line x1="61.300000000000004" y1="496.95" x2="661.3000000000001" y2="496.95" stroke="#000000" stroke-width="1" /><line x1="61.300000000000004" y1="46.95" x2="61.300000000000004" y2="496.95" stroke="#000000" stroke-width="1" /><line x1="61.300000000000004" y1="496.95" x2="61.300000000000004" y2="501.95" stroke="#000000" stroke-width="1" /><text x="61.300000000000004" y="513.09" font-size="12" text-anchor="middle">0.88</text><line x1="180.24" y1="496.95" x2="180.24" y2="501.95" stroke="#000000" stroke-width="1" /><text x="180.24" y="513.09" font-size="12" text-anchor="middle">0.9</text><line x1="299.18" y1="496.95" x2="299.18" y2="501.95" stroke="#000000" stroke-width="1" /><text x="299.18" y="513.09" font-size="12" text-anchor="middle">0.92</text><line x1="418.12" y1="496.95" x2="418.12" y2="501.95" stroke="#000000" stroke-width="1" /><text x="418.12" y="513.09" font-size="12" text-anchor="middle">0.94</text><line x1="537.0600000000001" y1="496.95" x2="537.0600000000001" y2="501.95" stroke="#000000" stroke-width="1" /><text x="537.0600000000001" y="513.09" font-size="12" text-anchor="middle">0.96</text><line x1="656" y1="496.95" x2="656" y2="501.95" stroke="#000000" stroke-width="1" /><text x="656" y="513.09" font-size="12" text-anchor="middle">0.98</text><line x1="56.300000000000004" y1="496.95" x2="61.300000000000004" y2="496.95" stroke="#000000" stroke-width="1" /><text x="53.300000000000004" y="501.33" font-size="12" text-anchor="end">0</text><line x1="56.300000000000004" y1="389.81" x2="61.300000000000004" y2="389.81" stroke="#000000" stroke-width="1" /><text x="53.300000000000004" y="394.18" font-size="12" text-anchor="end">0.5</text><line x1="56.300000000000004" y1="282.67" x2="61.300000000000004" y2="282.67" stroke="#000000" stroke-width="1" /><text x="53.300000000000004" y="287.04" font-size="12" text-anchor="end">1</text><line x1="56.300000000000004" y1="175.52" x2="61.300000000000004" y2="175.52" stroke="#000000" stroke-width="1" /><text x="53.300000000000004" y="179.9" font-size="12" text-anchor="end">1.5</text><line x1="56.300000000000004" y1="68.38" x2="61.300000000000004" y2="68.38" stroke="#000000" stroke-width="1" /><text x="53.300000000000004" y="72.76" font-size="12" text-anchor="end">2</text><text x="361.3" y="540.95" font-size="14" text-anchor="middle">CAI</text><text x="17.3" y="271.95" font-size="14" text-anchor="middle" transform="rotate(-90,17.3,271.95)">Frequency</text><text x="361.3" y="29.71" font-size="18" text-anchor="middle">Distribution of CAI Values</text><g clip-path="url(#kuva-clip-2)"><rect x="91.71000000000001" y="68.38" width="27.12" height="428.57" fill="#4682b4" /><rect x="227.32" y="282.67" width="27.12" height="214.29" fill="#4682b4" /><rect x="308.69" y="282.67" width="27.12" height="214.29" fill="#4682b4" /><rect x="607.0500000000001" y="282.67" width="27.12" height="214.29" fill="#4682b4" /></g></svg>