<svg xmlns="http://www.w3.org/2000/svg" width="860.1700000000001" height="547.95" font-family="DejaVu Sans, Verdana, Liberation Sans, Arial, sans-serif" fill="black"><rect width="100%" height="100%" fill="white" /><defs><clipPath id="kuva-clip-0"><rect x="61.300000000000004" y="46.95" width="600" height="450"/></clipPath></defs><line x1="147.01" y1="46.95" x2="147.01" y2="496.95" stroke="#cccccc" stroke-width="1" /><line x1="232.73000000000002" y1="46.95" x2="232.73000000000002" y2="496.95" stroke="#cccccc" stroke-width="1" /><line x1="318.44" y1="46.95" x2="318.44" y2="496.95" stroke="#cccccc" stroke-width="1" /><line x1="404.15000000000003" y1="46.95" x2="404.15000000000003" y2="496.95" stroke="#cccccc" stroke-width="1" /><line x1="489.87" y1="46.95" x2="489.87" y2="496.95" stroke="#cccccc" stroke-width="1" /><line x1="575.58" y1="46.95" x2="575.58" y2="496.95" stroke="#cccccc" stroke-width="1" /><line x1="661.3000000000001" y1="46.95" x2="661.3000000000001" y2="496.95" stroke="#cccccc" stroke-width="1" /><line x1="61.300000000000004" y1="440.7" x2="661.3000000000001" y2="440.7" stroke="#cccccc" stroke-width="1" /><line x1="61.300000000000004" y1="328.2" x2="661.3000000000001" y2="328.2" stroke="#cccccc" stroke-width="1" /><line x1="61.300000000000004" y1="215.70000000000002" x2="661.3000000000001" y2="215.70000000000002" stroke="#cccccc" stroke-width="1" /><line x1="61.300000000000004" y1="103.2" x2="661.3000000000001" y2="103.2" stroke="#cccccc" stroke-width="1" /><line x1="61.300000000000004" y1="496.95" x2="661.3000000000001" y2="496.95" stroke="#000000" stroke-width="1" /><line x1="61.300000000000004" y1="46.95" x2="61.300000000000004" y2="496.95" stroke="#000000" stroke-width="1" /><line x1="61.300000000000004" y1="496.95" x2="61.300000000000004" y2="501.95" stroke="#000000" stroke-width="1" /><text x="61.300000000000004" y="513.09" font-size="12" text-anchor="middle">36</text><line x1="147.01" y1="496.95" x2="147.01" y2="501.95" stroke="#000000" stroke-width="1" /><text x="147.01" y="513.09" font-size="12" text-anchor="middle">37</text><line x1="232.73000000000002" y1="496.95" x2="232.73000000000002" y2="501.95" stroke="#000000" stroke-width="1" /><text x="232.73000000000002" y="513.09" font-size="12" text-anchor="middle">38</text><line x1="318.44" y1="496.95" x2="318.44" y2="501.95" stroke="#000000" stroke-width="1" /><text x="318.44" y="513.09" font-size="12" text-anchor="middle">39</text><line x1="404.15000000000003" y1="496.95" x2="404.15000000000003" y2="501.95" stroke="#000000" stroke-width="1" /><text x="404.15000000000003" y="513.09" font-size="12" text-anchor="middle">40</text><line x1="489.87" y1="496.95" x2="489.87" y2="501.95" stroke="#000000" stroke-width="1" /><text x="489.87" y="513.09" font-size="12" text-anchor="middle">41</text><line x1="575.58" y1="496.95" x2="575.58" y2="501.95" stroke="#000000" stroke-width="1" /><text x="575.58" y="513.09" font-size="12" text-anchor="middle">42</text><line x1="661.3000000000001" y1="496.95" x2="661.3000000000001" y2="501.95" stroke="#000000" stroke-width="1" /><text x="661.3000000000001" y="513.09" font-size="12" text-anchor="middle">43</text><line x1="56.300000000000004" y1="440.7" x2="61.300000000000004" y2="440.7" stroke="#000000" stroke-width="1" /><text x="53.300000000000004" y="445.08" font-size="12" text-anchor="end">20</text><line x1="56.300000000000004" y1="328.2" x2="61.300000000000004" y2="328.2" stroke="#000000" stroke-width="1" /><text x="53.300000000000004" y="332.58" font-size="12" text-anchor="end">30</text><line x1="56.300000000000004" y1="215.70000000000002" x2="61.300000000000004" y2="215.70000000000002" stroke="#000000" stroke-width="1" /><text x="53.300000000000004" y="220.08" font-size="12" text-anchor="end">40</text><line x1="56.300000000000004" y1="103.2" x2="61.300000000000004" y2="103.2" stroke="#000000" stroke-width="1" /><text x="53.300000000000004" y="107.58" font-size="12" text-anchor="end">50</text><text x="361.3" y="540.95" font-size="14" text-anchor="middle">GC content (%)</text><text x="17.3" y="271.95" font-size="14" text-anchor="middle" transform="rotate(-90,17.3,271.95)">GC3 content (%)</text><text x="361.3" y="29.71" font-size="18" text-anchor="middle">GC3 vs GC Content</text><g clip-path="url(#kuva-clip-0)"><circle cx="133.48" cy="468.33" r="3" fill="#4682b4" /><circle cx="404.15000000000003" cy="356.33" r="3" fill="#4682b4" /><circle cx="578.07" cy="225.49" r="3" fill="#4682b4" /><circle cx="453.84000000000003" cy="249.94" r="3" fill="#4682b4" /><circle cx="547.01" cy="77.63" r="3" fill="#4682b4" /><path d="M 133.48 485.98 L 578.07 163.18 " stroke="#dc143c" stroke-width="2" fill="none" stroke-dasharray="8 4" /></g><rect x="666.3000000000001" y="36.95" width="177.88" height="50" fill="#ffffff" /><rect x="666.3000000000001" y="36.95" width="177.88" height="50" fill="none" stroke="#000000" stroke-width="1" /><text x="696.3000000000001" y="57.33" font-size="12" text-anchor="start">genes</text><circle cx="681.3000000000001" cy="52.95" r="5" fill="#4682b4" /><text x="696.3000000000001" y="75.33" font-size="12" text-anchor="start">y = 5.532x + -187.834</text><line x1="676.3000000000001" y1="70.95" x2="688.3000000000001" y2="70.95" stroke="#dc143c" stroke-width="2" stroke-dasharray="8 4" /></svg>